<svg xmlns="http://www.w3.org/2000/svg" width="406" height="190" viewBox="0 0 406 190" role="img">
  <defs>
    <linearGradient id="bg" x1="0" y1="0" x2="1" y2="1">
      <stop offset="0" stop-color="#0A0F1F"/><stop offset="1" stop-color="#121C38"/>
    </linearGradient>
    <linearGradient id="topline" x1="0" y1="0" x2="1" y2="0">
      <stop offset="0" stop-color="#FFFFFF" stop-opacity="0"/>
      <stop offset="0.5" stop-color="#FFFFFF" stop-opacity="0.14"/>
      <stop offset="1" stop-color="#FFFFFF" stop-opacity="0"/>
    </linearGradient>
    <linearGradient id="accent" x1="0" y1="0" x2="1" y2="0">
      <stop offset="0" stop-color="#7DD3FC"/><stop offset="1" stop-color="#A78BFA"/>
    </linearGradient>
    
    <clipPath id="round"><rect width="400" height="190" rx="13"/></clipPath>
  </defs>
  <g transform="translate(6 0)">
  <g clip-path="url(#round)">
    <rect width="400" height="190" fill="url(#bg)"/>
    <rect x="0" y="0" width="400" height="1" fill="url(#topline)"/>
    <g opacity="0.55"><rect x="288" y="24" width="14" height="12" rx="3" fill="#7DD3FC" opacity="0.2"/><rect x="308" y="24" width="14" height="12" rx="3" fill="#7DD3FC" opacity="0.55"><animate attributeName="opacity" values="0.55;0.08;0.55" dur="2.6s" begin="0.4s" repeatCount="indefinite"/></rect><rect x="328" y="24" width="14" height="12" rx="3" fill="#7DD3FC" opacity="0.2"/><rect x="348" y="24" width="14" height="12" rx="3" fill="#7DD3FC" opacity="0.2"/><rect x="368" y="24" width="14" height="12" rx="3" fill="#7DD3FC" opacity="0.55"><animate attributeName="opacity" values="0.55;0.08;0.55" dur="2.6s" begin="1.6s" repeatCount="indefinite"/></rect><rect x="288" y="42" width="14" height="12" rx="3" fill="#7DD3FC" opacity="0.2"/><rect x="308" y="42" width="14" height="12" rx="3" fill="#7DD3FC" opacity="0.2"/><rect x="328" y="42" width="14" height="12" rx="3" fill="#7DD3FC" opacity="0.55"><animate attributeName="opacity" values="0.55;0.08;0.55" dur="2.6s" begin="0.4s" repeatCount="indefinite"/></rect><rect x="348" y="42" width="14" height="12" rx="3" fill="#7DD3FC" opacity="0.2"/><rect x="368" y="42" width="14" height="12" rx="3" fill="#7DD3FC" opacity="0.55"><animate attributeName="opacity" values="0.55;0.08;0.55" dur="2.6s" begin="1.2s" repeatCount="indefinite"/></rect><rect x="288" y="60" width="14" height="12" rx="3" fill="#7DD3FC" opacity="0.2"/><rect x="308" y="60" width="14" height="12" rx="3" fill="#7DD3FC" opacity="0.2"/><rect x="328" y="60" width="14" height="12" rx="3" fill="#7DD3FC" opacity="0.55"><animate attributeName="opacity" values="0.55;0.08;0.55" dur="2.6s" begin="0.0s" repeatCount="indefinite"/></rect><rect x="348" y="60" width="14" height="12" rx="3" fill="#7DD3FC" opacity="0.2"/><rect x="368" y="60" width="14" height="12" rx="3" fill="#7DD3FC" opacity="0.2"/><rect x="288" y="78" width="14" height="12" rx="3" fill="#7DD3FC" opacity="0.55"><animate attributeName="opacity" values="0.55;0.08;0.55" dur="2.6s" begin="1.2s" repeatCount="indefinite"/></rect><rect x="308" y="78" width="14" height="12" rx="3" fill="#7DD3FC" opacity="0.2"/><rect x="328" y="78" width="14" height="12" rx="3" fill="#7DD3FC" opacity="0.2"/><rect x="348" y="78" width="14" height="12" rx="3" fill="#7DD3FC" opacity="0.2"/><rect x="368" y="78" width="14" height="12" rx="3" fill="#7DD3FC" opacity="0.2"/></g><text x="20" y="38" font-family="'Segoe UI','Helvetica Neue',Helvetica,Arial,sans-serif" font-size="15" font-weight="700" fill="#7DD3FC">Chunk-Level KV Cache Eviction</text><text x="20" y="57" font-family="ui-monospace,SFMono-Regular,'SF Mono',Menlo,Consolas,'Liberation Mono',monospace" font-size="9.5" font-weight="600" letter-spacing="1.2" fill="#8FA2C4" opacity="0.8">CS598 GENAI SYSTEMS &#183; SPRING 2026</text><text x="20" y="84" font-family="'Segoe UI','Helvetica Neue',Helvetica,Arial,sans-serif" font-size="12" fill="#CBD5E1">Fork of vLLM v0.18.0 with semantic chunk-level KV</text><text x="20" y="101" font-family="'Segoe UI','Helvetica Neue',Helvetica,Arial,sans-serif" font-size="12" fill="#CBD5E1">cache eviction for RAG workloads. Scores blend</text><text x="20" y="118" font-family="'Segoe UI','Helvetica Neue',Helvetica,Arial,sans-serif" font-size="12" fill="#CBD5E1">retrieval relevance, attention, and recency.</text><g><rect x="20" y="143.5" width="66.8" height="23" rx="11.5" fill="#3776AB" fill-opacity="0.10" stroke="#3776AB" stroke-opacity="0.30"/><circle cx="31.5" cy="155" r="2.5" fill="#3776AB"/><text x="40.0" y="158.8" font-family="ui-monospace,SFMono-Regular,'SF Mono',Menlo,Consolas,'Liberation Mono',monospace" font-size="10.5" fill="#CBD5E1">Python</text></g><g><rect x="93.8" y="143.5" width="54.2" height="23" rx="11.5" fill="#FDB515" fill-opacity="0.10" stroke="#FDB515" stroke-opacity="0.30"/><circle cx="105.3" cy="155" r="2.5" fill="#FDB515"/><text x="113.8" y="158.8" font-family="ui-monospace,SFMono-Regular,'SF Mono',Menlo,Consolas,'Liberation Mono',monospace" font-size="10.5" fill="#CBD5E1">vLLM</text></g><g><rect x="155.0" y="143.5" width="73.1" height="23" rx="11.5" fill="#EE4C2C" fill-opacity="0.10" stroke="#EE4C2C" stroke-opacity="0.30"/><circle cx="166.5" cy="155" r="2.5" fill="#EE4C2C"/><text x="175.0" y="158.8" font-family="ui-monospace,SFMono-Regular,'SF Mono',Menlo,Consolas,'Liberation Mono',monospace" font-size="10.5" fill="#CBD5E1">PyTorch</text></g><rect x="0" y="0" width="400" height="2.5" fill="url(#accent)"><animate attributeName="width" values="0;0;400" keyTimes="0;0.12;1" dur="1.25s" begin="0s" fill="freeze" calcMode="spline" keySplines="0 0 1 1;0.2 0.8 0.2 1"/></rect>
  </g>
  </g>
  <rect x="6.5" y="0.5" width="399" height="189" rx="12.5" fill="none" stroke="#FFFFFF" stroke-opacity="0.09"/>
</svg>
